<svg width="259" height="18" viewBox="0 0 259 18" fill="none" xmlns="http://www.w3.org/2000/svg">
<path fill-rule="evenodd" clip-rule="evenodd" d="M9.63829 11.9919L25.2324 0L25.6162 0.499074L26 0L41.9243 12.2458L55.7719 1.59703L57 0L57.4243 0.3263L57.8486 0L59.0768 1.59703L72.9243 12.2458L88.8486 0L89.2324 0.499075L89.6162 0L105.541 12.2458L120.327 0.874779L121 0L121.232 0.178733L121.465 0L122.138 0.874779L136.924 12.2458L152.849 0L153.232 0.499075L153.616 0L169.541 12.2458L183.388 1.59702L184.616 0L185.041 0.3263L185.465 0L186.693 1.59702L200.541 12.2458L216.465 0L216.849 0.499075L217.232 0L233.157 12.2458L249.081 0L249.485 0.525407L249.828 0.182071L258.828 9.18207L256 12.0105L249.055 5.06579L233.287 17.1916L233.157 17.0221L233.026 17.1916L216.849 4.75083L200.671 17.1916L200.541 17.0221L200.41 17.1916L185.041 5.37227L169.671 17.1916L169.541 17.0221L169.41 17.1916L153.232 4.75083L137.055 17.1916L136.924 17.0221L136.794 17.1916L121.232 5.2247L105.671 17.1916L105.541 17.0221L105.41 17.1916L89.2324 4.75083L73.0547 17.1916L72.9243 17.0221L72.794 17.1916L57.4243 5.37227L42.0547 17.1916L41.9243 17.0221L41.794 17.1916L25.6162 4.75084L9.43845 17.1916L9.16913 16.8414L9 17.0105L0 8.0105L2.82843 5.18207L9.63829 11.9919Z" fill="#DEF3FF"/>
</svg>
